<mxfile host="app.diagrams.net" modified="2024-03-20T12:57:37.060Z" agent="Mozilla/5.0 (X11; Linux x86_64; rv:123.0) Gecko/20100101 Firefox/123.0" etag="fRFpGUSPE5hdTeq8VQ6N" version="24.0.5" type="device">
  <diagram name="Page-1" id="e8pfsWELFuzeZRzG8OVw">
    <mxGraphModel dx="1414" dy="770" grid="1" gridSize="10" guides="1" tooltips="1" connect="1" arrows="1" fold="1" page="1" pageScale="1" pageWidth="850" pageHeight="1100" background="none" math="0" shadow="0">
      <root>
        <mxCell id="0" />
        <mxCell id="1" parent="0" />
        <mxCell id="eFAt2w4E8LdYiYJ6DrLI-19" style="edgeStyle=orthogonalEdgeStyle;rounded=0;orthogonalLoop=1;jettySize=auto;html=1;exitX=0.5;exitY=1;exitDx=0;exitDy=0;entryX=0.5;entryY=0;entryDx=0;entryDy=0;" parent="1" source="eFAt2w4E8LdYiYJ6DrLI-5" target="eFAt2w4E8LdYiYJ6DrLI-6" edge="1">
          <mxGeometry relative="1" as="geometry" />
        </mxCell>
        <mxCell id="eFAt2w4E8LdYiYJ6DrLI-20" style="edgeStyle=orthogonalEdgeStyle;rounded=0;orthogonalLoop=1;jettySize=auto;html=1;exitX=0.5;exitY=1;exitDx=0;exitDy=0;entryX=0;entryY=0;entryDx=0;entryDy=0;" parent="1" source="eFAt2w4E8LdYiYJ6DrLI-5" target="eFAt2w4E8LdYiYJ6DrLI-7" edge="1">
          <mxGeometry relative="1" as="geometry" />
        </mxCell>
        <mxCell id="eFAt2w4E8LdYiYJ6DrLI-29" style="edgeStyle=orthogonalEdgeStyle;rounded=0;orthogonalLoop=1;jettySize=auto;html=1;entryX=0.5;entryY=0;entryDx=0;entryDy=0;" parent="1" source="eFAt2w4E8LdYiYJ6DrLI-5" target="eFAt2w4E8LdYiYJ6DrLI-28" edge="1">
          <mxGeometry relative="1" as="geometry" />
        </mxCell>
        <mxCell id="eFAt2w4E8LdYiYJ6DrLI-5" value="&lt;div&gt;Libro&lt;/div&gt;" style="rounded=0;whiteSpace=wrap;html=1;" parent="1" vertex="1">
          <mxGeometry x="170" y="140" width="120" height="60" as="geometry" />
        </mxCell>
        <mxCell id="eFAt2w4E8LdYiYJ6DrLI-6" value="&lt;div&gt;Fecha de publicacion&lt;/div&gt;" style="ellipse;whiteSpace=wrap;html=1;" parent="1" vertex="1">
          <mxGeometry x="170" y="270" width="120" height="80" as="geometry" />
        </mxCell>
        <mxCell id="eFAt2w4E8LdYiYJ6DrLI-7" value="&lt;div&gt;Titulo&lt;/div&gt;" style="ellipse;whiteSpace=wrap;html=1;" parent="1" vertex="1">
          <mxGeometry x="305" y="240" width="120" height="80" as="geometry" />
        </mxCell>
        <mxCell id="eFAt2w4E8LdYiYJ6DrLI-16" style="edgeStyle=orthogonalEdgeStyle;rounded=0;orthogonalLoop=1;jettySize=auto;html=1;exitX=0.5;exitY=1;exitDx=0;exitDy=0;entryX=0.5;entryY=0;entryDx=0;entryDy=0;" parent="1" source="eFAt2w4E8LdYiYJ6DrLI-8" target="eFAt2w4E8LdYiYJ6DrLI-9" edge="1">
          <mxGeometry relative="1" as="geometry" />
        </mxCell>
        <mxCell id="eFAt2w4E8LdYiYJ6DrLI-8" value="&lt;div&gt;Estudiante&lt;/div&gt;&lt;div&gt;&lt;br&gt;&lt;/div&gt;" style="rounded=0;whiteSpace=wrap;html=1;" parent="1" vertex="1">
          <mxGeometry x="690" y="140" width="120" height="60" as="geometry" />
        </mxCell>
        <mxCell id="eFAt2w4E8LdYiYJ6DrLI-9" value="Nombre" style="ellipse;whiteSpace=wrap;html=1;" parent="1" vertex="1">
          <mxGeometry x="690" y="240" width="120" height="80" as="geometry" />
        </mxCell>
        <mxCell id="eFAt2w4E8LdYiYJ6DrLI-10" value="&lt;div&gt;Fecha inicio prestamo&lt;/div&gt;" style="ellipse;whiteSpace=wrap;html=1;" parent="1" vertex="1">
          <mxGeometry x="520" y="130" width="120" height="80" as="geometry" />
        </mxCell>
        <mxCell id="eFAt2w4E8LdYiYJ6DrLI-11" value="&lt;div&gt;Fecha termino prestamo&lt;/div&gt;" style="ellipse;whiteSpace=wrap;html=1;" parent="1" vertex="1">
          <mxGeometry x="370" y="130" width="120" height="80" as="geometry" />
        </mxCell>
        <mxCell id="eFAt2w4E8LdYiYJ6DrLI-14" style="edgeStyle=orthogonalEdgeStyle;rounded=0;orthogonalLoop=1;jettySize=auto;html=1;exitX=0;exitY=0.5;exitDx=0;exitDy=0;entryX=1;entryY=0;entryDx=0;entryDy=0;" parent="1" source="eFAt2w4E8LdYiYJ6DrLI-13" target="eFAt2w4E8LdYiYJ6DrLI-5" edge="1">
          <mxGeometry relative="1" as="geometry" />
        </mxCell>
        <mxCell id="eFAt2w4E8LdYiYJ6DrLI-15" style="edgeStyle=orthogonalEdgeStyle;rounded=0;orthogonalLoop=1;jettySize=auto;html=1;exitX=1;exitY=0.5;exitDx=0;exitDy=0;entryX=0;entryY=0;entryDx=0;entryDy=0;" parent="1" source="eFAt2w4E8LdYiYJ6DrLI-13" target="eFAt2w4E8LdYiYJ6DrLI-8" edge="1">
          <mxGeometry relative="1" as="geometry" />
        </mxCell>
        <mxCell id="eFAt2w4E8LdYiYJ6DrLI-24" style="edgeStyle=orthogonalEdgeStyle;rounded=0;orthogonalLoop=1;jettySize=auto;html=1;exitX=0;exitY=1;exitDx=0;exitDy=0;entryX=1;entryY=0;entryDx=0;entryDy=0;" parent="1" source="eFAt2w4E8LdYiYJ6DrLI-13" target="eFAt2w4E8LdYiYJ6DrLI-11" edge="1">
          <mxGeometry relative="1" as="geometry" />
        </mxCell>
        <mxCell id="eFAt2w4E8LdYiYJ6DrLI-25" style="edgeStyle=orthogonalEdgeStyle;rounded=0;orthogonalLoop=1;jettySize=auto;html=1;exitX=1;exitY=1;exitDx=0;exitDy=0;entryX=0;entryY=0;entryDx=0;entryDy=0;" parent="1" source="eFAt2w4E8LdYiYJ6DrLI-13" target="eFAt2w4E8LdYiYJ6DrLI-10" edge="1">
          <mxGeometry relative="1" as="geometry" />
        </mxCell>
        <mxCell id="eFAt2w4E8LdYiYJ6DrLI-13" value="&lt;div&gt;Prestar&lt;/div&gt;" style="rhombus;whiteSpace=wrap;html=1;" parent="1" vertex="1">
          <mxGeometry x="470" y="40" width="80" height="80" as="geometry" />
        </mxCell>
        <mxCell id="eFAt2w4E8LdYiYJ6DrLI-22" value="N" style="text;html=1;align=center;verticalAlign=middle;whiteSpace=wrap;rounded=0;" parent="1" vertex="1">
          <mxGeometry x="220" y="90" width="60" height="30" as="geometry" />
        </mxCell>
        <mxCell id="eFAt2w4E8LdYiYJ6DrLI-26" value="N" style="text;html=1;align=center;verticalAlign=middle;whiteSpace=wrap;rounded=0;" parent="1" vertex="1">
          <mxGeometry x="700" y="80" width="60" height="30" as="geometry" />
        </mxCell>
        <mxCell id="eFAt2w4E8LdYiYJ6DrLI-33" style="edgeStyle=orthogonalEdgeStyle;rounded=0;orthogonalLoop=1;jettySize=auto;html=1;exitX=1;exitY=0.25;exitDx=0;exitDy=0;" parent="1" source="eFAt2w4E8LdYiYJ6DrLI-27" target="eFAt2w4E8LdYiYJ6DrLI-31" edge="1">
          <mxGeometry relative="1" as="geometry" />
        </mxCell>
        <mxCell id="eFAt2w4E8LdYiYJ6DrLI-34" style="edgeStyle=orthogonalEdgeStyle;rounded=0;orthogonalLoop=1;jettySize=auto;html=1;exitX=1;exitY=0.75;exitDx=0;exitDy=0;entryX=0;entryY=0;entryDx=0;entryDy=0;" parent="1" source="eFAt2w4E8LdYiYJ6DrLI-27" target="eFAt2w4E8LdYiYJ6DrLI-32" edge="1">
          <mxGeometry relative="1" as="geometry" />
        </mxCell>
        <mxCell id="eFAt2w4E8LdYiYJ6DrLI-30" style="edgeStyle=orthogonalEdgeStyle;rounded=0;orthogonalLoop=1;jettySize=auto;html=1;exitX=0.5;exitY=1;exitDx=0;exitDy=0;entryX=0.5;entryY=0;entryDx=0;entryDy=0;" parent="1" source="eFAt2w4E8LdYiYJ6DrLI-28" target="eFAt2w4E8LdYiYJ6DrLI-27" edge="1">
          <mxGeometry relative="1" as="geometry" />
        </mxCell>
        <mxCell id="eFAt2w4E8LdYiYJ6DrLI-27" value="&lt;div&gt;Autor&lt;/div&gt;" style="rounded=0;whiteSpace=wrap;html=1;" parent="1" vertex="1">
          <mxGeometry x="40" y="430" width="120" height="60" as="geometry" />
        </mxCell>
        <mxCell id="eFAt2w4E8LdYiYJ6DrLI-28" value="&lt;div&gt;Escribe&lt;/div&gt;" style="rhombus;whiteSpace=wrap;html=1;" parent="1" vertex="1">
          <mxGeometry x="40" y="260" width="80" height="80" as="geometry" />
        </mxCell>
        <mxCell id="eFAt2w4E8LdYiYJ6DrLI-31" value="&lt;div&gt;Nombre&lt;/div&gt;" style="ellipse;whiteSpace=wrap;html=1;" parent="1" vertex="1">
          <mxGeometry x="200" y="400" width="120" height="80" as="geometry" />
        </mxCell>
        <mxCell id="eFAt2w4E8LdYiYJ6DrLI-32" value="&lt;div&gt;Apellido&lt;/div&gt;" style="ellipse;whiteSpace=wrap;html=1;" parent="1" vertex="1">
          <mxGeometry x="200" y="490" width="120" height="80" as="geometry" />
        </mxCell>
        <mxCell id="eFAt2w4E8LdYiYJ6DrLI-35" value="&lt;div&gt;N&lt;br&gt;&lt;/div&gt;" style="text;html=1;align=center;verticalAlign=middle;whiteSpace=wrap;rounded=0;" parent="1" vertex="1">
          <mxGeometry x="110" y="380" width="60" height="30" as="geometry" />
        </mxCell>
        <mxCell id="eFAt2w4E8LdYiYJ6DrLI-36" value="N" style="text;html=1;align=center;verticalAlign=middle;whiteSpace=wrap;rounded=0;" parent="1" vertex="1">
          <mxGeometry x="90" y="130" width="60" height="30" as="geometry" />
        </mxCell>
      </root>
    </mxGraphModel>
  </diagram>
</mxfile>
